<?xml version="1.0" encoding="utf-8"?>
<!-- Generator: Adobe Illustrator 23.0.6, SVG Export Plug-In . SVG Version: 6.00 Build 0)  -->
<svg version="1.1" id="Capa_1" xmlns="http://www.w3.org/2000/svg" xmlns:xlink="http://www.w3.org/1999/xlink" x="0px" y="0px"
	 viewBox="0 0 374.2 133.3" style="enable-background:new 0 0 374.2 133.3;" xml:space="preserve">
<style type="text/css">
	.st0{fill:#FCBF00;}
	.st1{fill:#E30613;}
	.st2{fill:#004899;}
	.st3{fill:#E20000;}
	.st4{fill:#004196;}
</style>
<title>Logo_original_colombianet</title>
<path class="st0" d="M61,61.7c-2.3-5.7-7.2-9.8-13.1-11.1c1.6,2.3,2.9,6,3.5,10.6C54.8,61.3,58,61.4,61,61.7z"/>
<path class="st0" d="M40.9,50.5c-6.2,1.2-11.3,5.4-13.6,11.3c3.2-0.3,6.5-0.4,10-0.5C38,56.5,39.3,52.7,40.9,50.5z"/>
<path class="st1" d="M48,87.2c6-1.4,10.9-5.6,13.1-11.3c-3,0.2-6.3,0.4-9.6,0.5C50.8,80.9,49.6,84.8,48,87.2z"/>
<path class="st1" d="M27.1,75.8c2.2,5.9,7.4,10.3,13.6,11.5c-1.6-2.4-2.9-6.3-3.5-11C33.7,76.2,30.3,76,27.1,75.8z"/>
<path class="st1" d="M49.4,76.4c-1.6,0-3.3,0.1-5,0.1s-3.4,0-5-0.1c0.8,6.5,2.7,11.1,4.9,11.2h0.2C46.7,87.4,48.6,82.9,49.4,76.4z"
	/>
<path class="st0" d="M39.5,61.1c1.6,0,3.3,0,5,0s3.3,0,4.9,0c-0.8-6.4-2.7-10.8-4.8-11h-0.2C42.2,50.2,40.3,54.7,39.5,61.1z"/>
<path class="st2" d="M36.7,68.9c0-2,0.1-3.9,0.3-5.9c-3.7,0.1-7.2,0.3-10.5,0.5c-1,3.4-1,6.9-0.1,10.3c3.3,0.2,6.8,0.4,10.5,0.5
	C36.8,72.6,36.7,70.8,36.7,68.9z"/>
<path class="st2" d="M61.7,63.6c-3.1-0.2-6.5-0.4-10-0.5C51.9,65,52,67,52,68.9c0,1.9-0.1,3.7-0.3,5.4c3.5-0.1,6.9-0.3,10-0.5
	C62.6,70.5,62.6,66.9,61.7,63.6L61.7,63.6z"/>
<path class="st2" d="M39.3,63c-0.2,1.8-0.3,3.8-0.3,5.8s0.1,3.8,0.2,5.6c1.7,0,3.4,0,5.1,0s3.6,0,5.3,0c0.2-1.8,0.2-3.6,0.2-5.6
	s-0.1-4-0.3-5.8c-1.7,0-3.5,0-5.3,0S40.9,63,39.3,63z"/>
<path class="st2" d="M87.3,50.5c-1.8,5-2.6,10.4-2.2,15.8c0.5,7.1,3,13.9,7.2,19.7c-0.4-0.4-6.4-5.8-14.5-3.8
	c-5.6,1.5-9.9,5.9-11.2,11.6c-1.2-6,0.9-11.9,5.3-15.1c2.5-1.7,5.4-2.5,8.4-2.3C78.4,67.1,81,57.6,87.3,50.5z"/>
<path class="st2" d="M88.9,49.2c-13.9-5.4-29-6.6-43.5-3.4c-4.2-13.2-0.7-27.6,9.1-37.4c-4.1,9.2-5.5,19.3-4.3,29.3
	C64.1,35.9,78.2,40.1,88.9,49.2z"/>
<path class="st0" d="M52.6,0c-4.1,8.9-9.9,16.9-17.2,23.5c-5,4.5-10.6,8.3-16.6,11.2c0.5,5,0.4,10.1-0.4,15.1
	C15.4,67.1,4.9,78.5,0,83.2c3.9-7.6,7.2-15.5,9.9-23.7c2.7-8.2,3.6-12.9,3.1-18.2c-0.3-3.4-1.2-6.8-2.6-10
	c8.4-3.7,16.2-8.3,23.5-13.8C40.8,12.3,47,6.5,52.6,0z"/>
<path class="st3" d="M1.7,88.8c15.1,0.5,29.8,5.6,42,14.5c9.6,7.1,17.4,16.5,22.6,27.3c0.5,1.8,2.3,2.9,4.1,2.5c1-0.4,1.7-1.2,2-2.1
	c-4.8-10.5-6.6-22.2-5.3-33.7c-1.2,2.8-2,5.8-2.4,8.9c-0.3,2.7-0.3,5.5,0,8.2c-6.5-9-15.1-16.2-25.2-20.8
	C27.6,88.2,14.5,86.6,1.7,88.8z"/>
<path d="M125.2,46.1c0-0.4-0.2-0.7-0.5-1c-0.5-0.4-1.1-0.8-1.7-0.9c-1-0.3-2.1-0.5-3.2-0.5c-6.4,1.2-12.1,4.6-16.3,9.7
	c-2,2.4-3.6,5.1-4.6,8c-1.2,4-0.9,8.4,1,12.2c0.8,1.7,1.9,3.1,3.2,4.3c1.1,0.9,2.3,1.6,3.6,2.2c2.9,1.4,6.1,2.1,9.3,2.1
	c6.1,0,11.8-2.8,16.9-6.2c4.9-3.1,9.6-7.2,11.3-12.7c0.2-0.5,0.2-1.2-0.1-1.7c-0.4-0.3-0.9-0.5-1.4-0.4c-2.3,0.2-4.5,1.2-6.1,2.9
	c-1.7,1.6-3.1,3.5-4.7,5.2c-5.5,5.8-15.3,9.8-22.8,5.4c-1.4-0.8-2.5-1.9-3.3-3.3c-2.3-4.3,0.7-9.5,2-11.8c1.9-3.3,4.7-6.1,8.1-8
	c1.3-0.8,2.6-1.4,4-1.9c1.4-0.5,3.3-0.7,4.4-1.8C124.9,47.3,125.2,46.7,125.2,46.1z"/>
<path d="M167.4,55.5v20.3c0.1,1,0.4,2.1,0.8,3c0.5,0.9,1.5,2.9,3,2.9c1.1-0.2,2.1-1,2.5-2.1c0.4-0.9,0.3-1.7,0.1-3.3
	c-0.2-1.3-0.5-2.5-0.9-3.8c-1.1-4.2-0.8-8.3-0.7-12.6l0.3-13.7c0.1-1.6-1.1-2.9-2.6-3c-1.2,0.1-2.1,0.9-2.4,2V55.5z"/>
<path d="M150.5,82.4c4.5,1.3,9.4-2.3,11.3-8.1l-16.6-4.4C143.9,75.7,146.2,81.2,150.5,82.4z"/>
<path d="M156.2,60.2c-4.1-0.7-8.4,2.6-10.4,7.7l7.4,2L156.2,60.2z"/>
<path d="M157.8,60.7L157.8,60.7l-2.8,9.7l7.3,1.9C163.3,67.2,161.4,62.4,157.8,60.7z"/>
<path d="M188.4,60.5c-4.6-0.9-9.2,3.2-10.4,9.3s1.5,11.6,6.1,12.5s9.2-3.2,10.4-9.3S193,61.4,188.4,60.5z M189.4,71.6
	c-0.6,3.1-2.5,5.3-4.1,4.9s-2.6-3.1-2-6.1s2.5-5.3,4.1-4.9S190,68.5,189.4,71.6L189.4,71.6z"/>
<path d="M200.4,65.4c-0.4,0.2-0.7,0.5-0.9,0.9c-0.1,0.2-0.1,0.4-0.2,0.6c-0.1,1-0.1,2.1-0.1,3.1l-0.1,11c0.4,0.6,1,1.1,1.7,1.2
	c1.1,0,2-0.8,2.2-1.9l2.3-6.5l0.8-3.3c0.1-0.3,0.1-1,0.4-1.2c0.2-0.2,0.5-0.2,0.8-0.2c0.3,0,0.5,0.1,0.7,0.3
	c0.2,0.2,0.3,0.4,0.3,0.7c0,0.1,0,0.2,0,0.4c0,0.8,0.4,5.1,0.6,6.2c0.2,1.6,1.1,5.5,2.8,5.7s3.5-3.2,4.2-4.6
	c2.1-4.1,2.1-7.6,2.8-7.6s0.6,2.4,1.8,5.3c0.9,2.3,2.2,4.3,3.9,6.1c0.6,0.8,1.6,1.2,2.5,0.9c1.2-0.5,1.8-1.9,1.2-3.1c0,0,0,0,0-0.1
	c-0.8-4.1-2.1-8-3.9-11.8c-1.5-3.2-3.5-7.3-5.5-7.1c-1.4,0.2-2.3,2.2-3.5,5c-1.6,3.8-1.9,6.8-2.4,6.8s-0.2-4.1-2.7-8.3
	c-1.1-1.9-1.9-2.4-2.6-2.5c-1.4-0.1-2.8,1.4-2.8,1.5c-0.9,1.1-0.6,1.8-1.3,2.2S201.6,64.8,200.4,65.4z"/>
<path d="M252.4,63.3c-2-2.5-6.6-2.3-9.4-1.3c-3.6,1.3-5,3.9-6.3,3.3c-0.8-0.4-0.9-2-1-5.4c-0.1-1.7-0.1-3.5,0.1-5.2c0-1,0.1-2,0.4-3
	c0.4-1.6,1.2-3.1,2.3-4.4c0.2-1.2-0.6-2.4-1.8-2.6c-0.7-0.1-1.4,0.1-1.9,0.5c-0.6,0.6-1.1,1.3-1.5,2.1c-1.2,2-1.8,4.2-2,6.4v22.6
	c0.1,1.2,0.5,3.6,2.3,5.1c3.8,3,10.5-1.1,11.8-1.9c3-1.7,5.4-4.4,6.8-7.6C252.8,70.1,254.5,65.9,252.4,63.3z M245.1,74.7
	c-2.7,2.7-6.1,3.8-7.5,2.3s-0.4-4.8,2.3-7.5s6.1-3.8,7.5-2.3S247.8,72,245.1,74.7z"/>
<path d="M257.4,62.6V80c0.1,1.3,1.2,2.3,2.6,2.3c1.1-0.1,1.9-0.9,2.2-1.9l0.1-17.7c0-1.3-1-2.5-2.4-2.5
	C258.6,60.1,257.4,61.2,257.4,62.6L257.4,62.6z"/>
<ellipse transform="matrix(0.6108 -0.7918 0.7918 0.6108 58.6379 226.4028)" cx="259.6" cy="53.6" rx="3.2" ry="2.5"/>
<path d="M290.8,78.1c-0.8-1.5-1.7-2.9-2.4-4.4c-0.7-1.6-1.2-3.3-1.5-5c-0.2-2.2-0.6-4.4-1.1-6.5c-0.7-2.5-3.7-2.1-5.7-1.4
	c-3.6,1.7-6.7,4.1-9.2,7.2c-1.7,2.2-3.1,4.6-4,7.3c-1,2-0.6,4.3,0.9,5.9c2,1.8,5,1.8,7,0.1c2-1.4,3.7-3.3,5-5.3
	c0.8-1.3,1.4-2.7,2.1-2.6s0.8,1.3,1.3,2.8c0.6,1.9,1.6,3.8,2.7,5.4c1,1.3,2.9,1.4,4.1,0.4C291.2,80.9,291.5,79.4,290.8,78.1
	L290.8,78.1z M277,71.9c-2,3-4.1,5.1-4.6,4.7s0.7-3,2.8-6s4.1-5.1,4.6-4.7S279,69,277,71.9L277,71.9z"/>
<path d="M299.7,64.9c-0.1-0.1-0.2-0.3-0.2-0.4c0-0.4,0-0.8-0.3-1.1c-0.9-1.1-2.9-0.5-3.4,0.6c-0.8,1.9-1.3,3.9-1.5,6
	c-0.3,1.8-0.4,3.6-0.4,5.5c-0.1,1.6,0,3.1,0.4,4.6c0.4,0.8,1.2,1.2,2.1,1.2c0.9-0.1,1.7-0.7,2.1-1.6c0.6-3.4,1.7-6.8,3.2-9.9
	c0.7-1.6,1.6-3.1,2.5-4.5c0.3-0.2,0.7-0.4,1.1-0.3c1.6,0.1,1.2,1.8,1.3,3c0.1,1.7,0.4,3.5,0.7,5.2c0.5,2.8,1.3,5.5,2.3,8.2
	c0.4,0.7,1.2,1.2,2,1.2c2.3-0.2,2.2-3.7,1.9-5.3c-0.2-0.6-0.5-1.1-0.9-1.5c-0.9-1-1.1-2.7-1.5-6.1c-0.2-2.1-0.1-2.3-0.3-4.9
	c-0.1-0.9-0.2-1.7-0.3-2.6c0-0.8-0.2-1.6-0.3-2.4c-0.4-1.7-2.2-2.8-3.9-2.4c-1,0.2-1.8,0.9-2.2,1.9l-2.7,5.1
	C300.9,64.5,300.1,65.2,299.7,64.9z"/>
<path d="M341.5,68.9c-0.8-0.6-1.9-0.4-2.5,0.4c0,0-0.1,0.1-0.1,0.1l-2.7,4.4c-0.3,0.4-3.6,5-7.5,4.5c-1,0-2-0.5-2.7-1.2
	c-0.5-0.7-1-1.8-0.6-2.5c0.3-0.6,0.9-0.5,2-0.9c1-0.4,1.9-1,2.6-1.9c1.6-1.9,1.4-5,0.4-7.2c-1.3-2.6-3.9-4.3-6.9-4.3
	c-2.2,0.1-4.2,1-5.6,2.6c-1.5,1.8-1.7,4.6-1.5,6.9c0.2,2.3,1,4.6,2.3,6.5c1.3,2,3.1,3.6,5.3,4.6c1.5,0.8,3.1,1.2,4.8,1.3
	c4.9,0,8.2-3.7,9.6-5.2c1.5-1.7,2.7-3.6,3.4-5.7C342.4,70.6,342.3,69.5,341.5,68.9z M323.7,71.8c-1.5,0-2.6-1.7-2.7-3.1
	c-0.1-1.7,1.1-3.6,2.6-3.6s2.7,1.9,2.6,3.6C326.3,70.1,325.2,71.8,323.7,71.8z"/>
<path d="M346,67.3v13.2c0.3,1.5,1.6,2.6,3.1,2.6c0.9-0.2,1.7-0.7,2.1-1.6V66.3h8.9c1-0.2,1.9-0.8,2.5-1.6c0.1-0.2,1.4-1.9,0.5-3.1
	c-0.6-0.7-1.5-0.9-2.4-0.7c-0.7,0.3-1.4,0.6-2.1,0.8c-0.5,0.1-1.1,0.2-1.6,0.3c-1.9,0.2-3.9,0.2-5.9,0.2c0.1-3,0-5.9,0.2-8.9
	c0.1-1.3,0-2.6,0.2-3.8c0.3-1.8,0.9-3.5,0.5-5.3c-0.1-0.6-0.2-1.1-0.5-1.6c-0.4-1-1.3-1.6-2.4-1.8c-1.6,0-2.9,1.2-3,2.8
	c-0.1,6.3-0.2,12.7-0.3,19l-7.3,0.2c-1.3,0.5-1.9,1.9-1.5,3.1c0.2,0.7,0.8,1.2,1.4,1.4L346,67.3z"/>
<path class="st1" d="M340.6,38.2c-0.6,0.2-1.1,0.6-1.4,1.2c-1.2,2.2-1.2,4.8,0.2,7c0.4,0.5,1,0.8,1.6,0.9c0.6-0.1,1.2-0.4,1.5-1
	c0.4-0.6,0.4-1.4,0-2c-0.2-0.4-0.3-0.9-0.4-1.4c0-0.6,0.1-1.2,0.3-1.8c0.4-0.6,0.4-1.4,0-2C341.9,38.4,341.3,38.2,340.6,38.2z"/>
<path class="st1" d="M357.8,38.4c0.6,0.2,1.2,0.6,1.4,1.2c1.2,2.2,1.2,4.8-0.2,6.9c-0.4,0.5-1,0.9-1.6,0.9c-0.6-0.1-1.2-0.4-1.5-1
	c-0.3-0.6-0.3-1.3,0-1.9c0.2-0.4,0.3-0.9,0.4-1.4c0-0.6-0.1-1.2-0.3-1.8c-0.4-0.6-0.4-1.4,0-2.1C356.4,38.7,357.1,38.4,357.8,38.4z"
	/>
<path class="st4" d="M335.6,33.4c-1.2-0.1-2.2,1-2.8,1.9c-0.6,1-1,2.2-1.2,3.3c-0.2,1.8-0.3,3.5-0.3,5.3c0,1.4,0.1,2.8,0.4,4.1
	c0.2,1,0.6,1.9,1.2,2.7c0.5,0.8,1.5,1.7,2.5,1.5c0.7-0.1,1.3-0.6,1.5-1.3c0.1-0.9-0.1-1.7-0.6-2.5c-0.9-1.7-0.9-3.2-0.9-6
	c0-1,0.1-2,0.3-3c0.1-0.7,0.3-1.4,0.5-2.1c0.4-1,1.5-1.8,1.1-2.9C337,33.9,336.3,33.4,335.6,33.4z"/>
<path class="st4" d="M363.1,33.2c1.2-0.1,2.2,1,2.8,1.9c0.6,1,1,2.2,1.1,3.3c0.2,1.8,0.3,3.5,0.3,5.3c0,1.4-0.1,2.8-0.3,4.1
	c-0.2,1-0.6,1.9-1.2,2.7c-0.5,0.8-1.5,1.7-2.5,1.5c-0.7-0.1-1.3-0.6-1.5-1.3c-0.1-0.9,0.1-1.8,0.6-2.5c0.9-1.7,0.9-3.2,0.9-6
	c0-1-0.1-2-0.3-3c-0.1-0.7-0.3-1.4-0.5-2.1c-0.4-1-1.5-1.8-1.1-2.9C361.7,33.7,362.4,33.3,363.1,33.2z"/>
<path class="st0" d="M330.2,28.4c-0.5-0.4-1.2-0.5-1.8-0.3c-0.9,0.4-1.7,1.2-2,2.1c-2.3,5.1-2.1,13.2-2.1,13.2
	c0,2.7,0.3,11.1,3,13.8c0.5,0.6,1.3,1,2.1,1c0.8-0.2,1.5-0.7,1.7-1.5c0.4-1.1-0.2-2.1-0.7-3c-1.6-3.1-1.3-7.1-1.5-10.5
	c-0.2-4.1,0.4-8.1,1.7-12C331,30.3,330.9,29.1,330.2,28.4z"/>
<path class="st0" d="M368.3,28.1c0.5-0.4,1.2-0.5,1.8-0.3c0.9,0.4,1.7,1.2,2,2.1c2.3,5.1,2.1,13.2,2.1,13.2c0,2.7-0.3,11-3,13.8
	c-0.5,0.6-1.3,1-2.1,1c-0.8-0.1-1.5-0.7-1.7-1.5c-0.4-1.1,0.3-2.1,0.7-3c1.6-3.1,1.3-7.1,1.5-10.5c0.2-4.1-0.4-8.1-1.7-12
	C367.4,30,367.5,28.9,368.3,28.1z"/>
<path d="M108.9,103.6c-1.1,0.4-2.3,0.6-3.5,0.6c-3.7,0-6.5-2.2-6.5-6.2c0-3.8,2.8-6.4,6.9-6.4c1.1,0,2.1,0.1,3.1,0.5l-0.4,1.3
	c-0.8-0.4-1.8-0.5-2.7-0.5c-3.1,0-5.2,1.8-5.2,5c0,3,1.9,4.9,5.1,4.9c1,0,1.9-0.2,2.8-0.5L108.9,103.6z"/>
<path d="M123.7,97.8c0,4.2-2.8,6.4-6.2,6.4s-6-2.5-6-6.2c0-3.9,2.6-6.4,6.2-6.4S123.7,94.2,123.7,97.8z M113.4,98
	c0,2.6,1.5,4.9,4.2,4.9s4.2-2.3,4.2-5.1c0-2.4-1.4-5-4.2-5S113.4,95.3,113.4,98z"/>
<path d="M127.7,104V91.8h1.9l4.2,6.2c0.9,1.3,1.7,2.6,2.4,4l0,0c-0.2-1.7-0.2-3.3-0.2-5v-5.2h1.6V104h-1.7l-4.2-6.2
	c-0.9-1.3-1.7-2.7-2.5-4.1h-0.1c0.1,1.5,0.1,3,0.1,5v5.2L127.7,104z"/>
<path d="M149.2,98.3H144v4.4h5.7v1.3h-7.5V91.8h7.2v1.3H144V97h5.1L149.2,98.3z"/>
<path d="M163,103.6c-1.1,0.4-2.3,0.6-3.5,0.6c-3.7,0-6.5-2.2-6.5-6.2c0-3.8,2.8-6.4,6.9-6.4c1.1,0,2.1,0.1,3.1,0.5l-0.4,1.3
	c-0.8-0.4-1.8-0.5-2.7-0.5c-3.1,0-5.2,1.8-5.2,5c0,3,1.9,4.9,5.1,4.9c1,0,1.9-0.2,2.8-0.5L163,103.6z"/>
<path d="M169.9,93.2h-4v-1.3h9.8v1.3h-4V104H170L169.9,93.2z"/>
<path d="M179.6,100.2l-1.4,3.8h-1.8l4.5-12.2h2.1l4.5,12.2h-1.8l-1.4-3.8H179.6z M183.9,98.9l-1.3-3.5c-0.3-0.8-0.5-1.5-0.7-2.2l0,0
	c-0.2,0.7-0.4,1.5-0.7,2.2l-1.3,3.5L183.9,98.9z"/>
<path d="M209.1,93.2h-4v-1.3h9.8v1.3h-4V104h-1.7L209.1,93.2z"/>
<path d="M219.8,91.8V99c0,2.7,1.3,3.9,3.1,3.9c2,0,3.2-1.2,3.2-3.9v-7.2h1.7v7.1c0,3.8-2.1,5.3-5,5.3c-2.7,0-4.8-1.4-4.8-5.2v-7.2
	H219.8z"/>
<path d="M232.3,102.1c0.9,0.5,2,0.8,3.1,0.8c1.8,0,2.8-0.8,2.8-2.1s-0.7-1.8-2.5-2.4c-2.2-0.7-3.5-1.7-3.5-3.5
	c0-1.9,1.7-3.3,4.3-3.3c1,0,2,0.2,2.9,0.6l-0.5,1.3c-0.8-0.4-1.6-0.6-2.5-0.6c-1.8,0-2.5,1-2.5,1.8c0,1.1,0.8,1.7,2.6,2.4
	c2.2,0.8,3.4,1.8,3.4,3.6s-1.5,3.5-4.6,3.5c-1.2,0-2.3-0.3-3.4-0.8L232.3,102.1z"/>
<path d="M260.1,98.3H255v4.4h5.7v1.3h-7.5V91.8h7.2v1.3H255V97h5.1L260.1,98.3z"/>
<path d="M275.5,98.7c-0.1-1.7-0.2-3.8-0.2-5.3h0c-0.5,1.4-1,3-1.7,4.6l-2.3,5.9H270l-2.1-5.8c-0.6-1.7-1.2-3.3-1.5-4.8l0,0
	c0,1.5-0.1,3.6-0.3,5.4l-0.4,5.2H264l0.9-12.2h2.2l2.3,5.9c0.5,1.5,1,2.8,1.3,4.1l0,0c0.3-1.2,0.8-2.6,1.4-4.1l2.4-5.9h2.2l0.8,12.2
	h-1.7L275.5,98.7z"/>
<path d="M292.8,97.8c0,4.2-2.8,6.4-6.2,6.4s-6-2.5-6-6.2c0-3.9,2.6-6.4,6.1-6.4S292.8,94.2,292.8,97.8z M282.5,98
	c0,2.6,1.5,4.9,4.2,4.9s4.3-2.3,4.3-5.1c0-2.4-1.4-5-4.2-5S282.5,95.3,282.5,98z"/>
<path d="M305.7,103.6c-1.1,0.4-2.3,0.6-3.5,0.6c-3.7,0-6.5-2.2-6.5-6.2c0-3.8,2.8-6.4,6.9-6.4c1.1,0,2.1,0.1,3.1,0.5l-0.4,1.3
	c-0.8-0.4-1.8-0.5-2.7-0.5c-3.1,0-5.2,1.8-5.2,5c0,3,1.9,4.9,5.1,4.9c1,0,1.9-0.2,2.8-0.5L305.7,103.6z"/>
<path d="M310.9,91.8V104h-1.7V91.8H310.9z"/>
<path d="M326.6,97.8c0,4.2-2.8,6.4-6.1,6.4s-6-2.5-6-6.2c0-3.9,2.6-6.4,6.2-6.4S326.6,94.2,326.6,97.8z M316.3,98
	c0,2.6,1.5,4.9,4.2,4.9s4.2-2.3,4.2-5.1c0-2.4-1.4-5-4.2-5S316.3,95.3,316.3,98L316.3,98z"/>
<path d="M330.2,104V91.8h1.9l4.2,6.2c0.9,1.3,1.7,2.6,2.4,4l0,0c-0.2-1.7-0.2-3.3-0.2-5v-5.1h1.6v12.2h-1.7l-4.2-6.2
	c-0.9-1.3-1.7-2.7-2.5-4.1h-0.1c0.1,1.5,0.1,3,0.1,5v5.2L330.2,104z"/>
<path d="M351.3,98.3h-5.1v4.4h5.7v1.3h-7.4V91.8h7.1v1.3h-5.5V97h5.1L351.3,98.3z"/>
<path d="M355.3,102.1c0.9,0.5,2,0.8,3.1,0.8c1.8,0,2.8-0.8,2.8-2.1s-0.7-1.8-2.5-2.4c-2.2-0.7-3.5-1.7-3.5-3.5
	c0-1.9,1.7-3.3,4.3-3.3c1,0,2,0.2,2.9,0.6l-0.5,1.3c-0.8-0.4-1.6-0.6-2.5-0.6c-1.8,0-2.5,1-2.5,1.8c0,1.1,0.8,1.7,2.6,2.3
	c2.2,0.8,3.4,1.8,3.4,3.6s-1.5,3.5-4.6,3.5c-1.2,0-2.3-0.2-3.4-0.8L355.3,102.1z"/>
</svg>
