<svg id="Capa_1" data-name="Capa 1" xmlns="http://www.w3.org/2000/svg" viewBox="0 0 374.21 133.25"><defs><style>.cls-1{fill:#fcbf00;}.cls-2{fill:#e30613;}.cls-3{fill:#004899;}.cls-4{fill:#e20000;}.cls-5{fill:#fff;}.cls-6{fill:#004196;}</style></defs><title>Logo_original_colombianet</title><path class="cls-1" d="M61.75,62.37A18.43,18.43,0,0,0,48.62,51.23c1.59,2.28,2.86,6.05,3.54,10.63C55.5,62,58.72,62.13,61.75,62.37Z" transform="translate(-0.73 -0.69)"/><path class="cls-1" d="M41.62,51.14A18.38,18.38,0,0,0,28,62.42c3.16-.26,6.53-.44,10-.55C38.7,57.21,40,53.41,41.62,51.14Z" transform="translate(-0.73 -0.69)"/><path class="cls-2" d="M48.77,87.85A18.44,18.44,0,0,0,61.84,76.5c-3.05.24-6.27.41-9.63.51C51.57,81.64,50.34,85.48,48.77,87.85Z" transform="translate(-0.73 -0.69)"/><path class="cls-2" d="M27.87,76.46A18.4,18.4,0,0,0,41.47,88C39.87,85.59,38.61,81.7,38,77,34.43,76.9,31.05,76.71,27.87,76.46Z" transform="translate(-0.73 -0.69)"/><path class="cls-2" d="M50.11,77.07c-1.63,0-3.28.05-5,.05s-3.36,0-5-.05c.84,6.54,2.72,11.12,4.93,11.21h.17C47.42,88.11,49.29,83.56,50.11,77.07Z" transform="translate(-0.73 -0.69)"/><path class="cls-1" d="M40.18,61.81c1.63,0,3.28-.05,5-.05s3.31,0,4.93.05c-.84-6.36-2.68-10.81-4.84-11h-.17C42.89,50.92,41,55.4,40.18,61.81Z" transform="translate(-0.73 -0.69)"/><path class="cls-3" d="M37.46,69.64a55,55,0,0,1,.31-5.86c-3.69.1-7.19.27-10.45.5a18.88,18.88,0,0,0-.07,10.29c3.27.23,6.78.4,10.48.5C37.56,73.34,37.46,71.53,37.46,69.64Z" transform="translate(-0.73 -0.69)"/><path class="cls-3" d="M62.4,64.26c-3.13-.22-6.48-.38-10-.48a55,55,0,0,1,.31,5.86c0,1.88-.1,3.7-.27,5.43,3.53-.09,6.89-.25,10-.47a18.93,18.93,0,0,0-.06-10.34Z" transform="translate(-0.73 -0.69)"/><path class="cls-3" d="M40,63.73c-.18,1.84-.27,3.79-.27,5.83s.08,3.8.24,5.56c1.68,0,3.38,0,5.11,0s3.56,0,5.29,0c.16-1.76.24-3.63.24-5.56s-.1-4-.27-5.82c-1.72,0-3.47-.05-5.26-.05S41.62,63.7,40,63.73Z" transform="translate(-0.73 -0.69)"/><path class="cls-3" d="M88,51.23A38.09,38.09,0,0,0,85.8,67,38.5,38.5,0,0,0,93,86.66c-.4-.38-6.45-5.84-14.49-3.77A15.58,15.58,0,0,0,67.29,94.46c-1.15-6,.91-11.94,5.3-15.06A13.55,13.55,0,0,1,81,77.07a30,30,0,0,1,7-25.84Z" transform="translate(-0.73 -0.69)"/><path class="cls-3" d="M89.66,49.89a75.23,75.23,0,0,0-43.55-3.43A36.93,36.93,0,0,1,55.18,9.09,55.33,55.33,0,0,0,50.91,38.4,49.77,49.77,0,0,1,89.66,49.89Z" transform="translate(-0.73 -0.69)"/><path class="cls-1" d="M53.31.69A72.1,72.1,0,0,1,36.09,24.21,71.86,71.86,0,0,1,19.5,35.4a55.48,55.48,0,0,1-.44,15.08C16.16,67.82,5.68,79.17.73,83.87a175.61,175.61,0,0,0,9.9-23.66C13.36,52,14.24,47.34,13.71,42a33.84,33.84,0,0,0-2.57-10A117.81,117.81,0,0,0,34.67,18.17,117.32,117.32,0,0,0,53.31.69Z" transform="translate(-0.73 -0.69)"/><path class="cls-4" d="M2.4,89.53a75.61,75.61,0,0,1,42,14.53A74.86,74.86,0,0,1,67,131.31a3.61,3.61,0,0,0,4.12,2.52,3.34,3.34,0,0,0,2-2.13A64.08,64.08,0,0,1,67.84,98a32.83,32.83,0,0,0-2.44,8.88,32.41,32.41,0,0,0,0,8.22A63.9,63.9,0,0,0,40.2,94.29,64.33,64.33,0,0,0,2.4,89.53Z" transform="translate(-0.73 -0.69)"/><path class="cls-5" d="M125.9,46.78a1.64,1.64,0,0,0-.5-1,3.63,3.63,0,0,0-1.71-.9,8.94,8.94,0,0,0-3.2-.46,28,28,0,0,0-16.26,9.65,25,25,0,0,0-4.61,8,16.7,16.7,0,0,0,1,12.2,12.88,12.88,0,0,0,3.23,4.33,15.33,15.33,0,0,0,3.56,2.2,22.1,22.1,0,0,0,9.32,2.09c6.09,0,11.83-2.84,16.94-6.17C138.54,73.6,143.29,69.55,145,64a1.83,1.83,0,0,0-.08-1.68,1.67,1.67,0,0,0-1.37-.43,9.8,9.8,0,0,0-6.15,2.93c-1.69,1.58-3.06,3.47-4.66,5.15-5.45,5.75-15.32,9.77-22.78,5.4a8.52,8.52,0,0,1-3.3-3.33c-2.27-4.34.69-9.53,2-11.83a21.83,21.83,0,0,1,8.06-8,27.11,27.11,0,0,1,4-1.93c1.41-.55,3.32-.73,4.41-1.84A2.14,2.14,0,0,0,125.9,46.78Z" transform="translate(-0.73 -0.69)"/><path class="cls-5" d="M168.13,56.23V76.54a7.92,7.92,0,0,0,.83,3c.48.94,1.49,2.91,3,2.9a3.2,3.2,0,0,0,2.5-2.06c.39-.88.29-1.69.07-3.28a30.16,30.16,0,0,0-.9-3.79c-1.1-4.17-.76-8.31-.68-12.58L173.21,47A2.83,2.83,0,0,0,170.57,44a2.73,2.73,0,0,0-2.44,2Z" transform="translate(-0.73 -0.69)"/><path class="cls-5" d="M151.23,83.13c4.46,1.3,9.45-2.33,11.34-8.14l-16.65-4.36C144.63,76.38,146.89,81.86,151.23,83.13Z" transform="translate(-0.73 -0.69)"/><path class="cls-5" d="M156.88,60.92c-4.09-.67-8.45,2.57-10.37,7.71l7.44,2Z" transform="translate(-0.73 -0.69)"/><path class="cls-5" d="M158.55,61.43l-.05,0-2.76,9.66L163.08,73C164,67.89,162.16,63.09,158.55,61.43Z" transform="translate(-0.73 -0.69)"/><path class="cls-5" d="M189.15,61.2c-4.56-.9-9.22,3.25-10.41,9.27s1.54,11.62,6.1,12.52,9.22-3.24,10.41-9.26S193.71,62.1,189.15,61.2Zm1,11.08c-.61,3.06-2.46,5.26-4.15,4.93s-2.56-3.08-2-6.13,2.46-5.26,4.15-4.93S190.73,69.23,190.13,72.28Z" transform="translate(-0.73 -0.69)"/><path class="cls-5" d="M201.13,66.12a2,2,0,0,0-.94.88,1.83,1.83,0,0,0-.17.58,24.32,24.32,0,0,0-.09,3.13l-.09,11a2.31,2.31,0,0,0,1.72,1.15A2.27,2.27,0,0,0,203.79,81l2.27-6.48.8-3.3c.08-.32.12-1,.41-1.22a1.29,1.29,0,0,1,.8-.23,1,1,0,0,1,.7.27,1.23,1.23,0,0,1,.31.69,1.76,1.76,0,0,1,0,.36c0,.77.44,5.07.6,6.23.22,1.61,1.11,5.48,2.78,5.72s3.51-3.24,4.2-4.56c2.15-4.11,2.1-7.6,2.77-7.6s.64,2.38,1.76,5.25a19.11,19.11,0,0,0,3.9,6.11,2.32,2.32,0,0,0,2.53.92,2.38,2.38,0,0,0,1.2-3.19,49.15,49.15,0,0,0-3.93-11.78c-1.52-3.17-3.51-7.3-5.54-7.08-1.38.15-2.27,2.24-3.48,5.05C214.24,70,214,73,213.45,72.94s-.23-4.1-2.67-8.35c-1.07-1.87-1.88-2.38-2.62-2.45-1.45-.13-2.75,1.43-2.83,1.52-.9,1.09-.57,1.81-1.33,2.21S202.31,65.53,201.13,66.12Z" transform="translate(-0.73 -0.69)"/><path class="cls-5" d="M253.11,63.94c-2-2.51-6.55-2.33-9.38-1.35-3.59,1.25-5,3.93-6.3,3.28-.76-.38-.85-2.05-1-5.4a38,38,0,0,1,.09-5.18,16.43,16.43,0,0,1,.36-3,10.82,10.82,0,0,1,2.31-4.37,2.22,2.22,0,0,0-3.66-2.06A14.46,14.46,0,0,0,234,47.94a14.79,14.79,0,0,0-2,6.42V77c.09,1.24.46,3.64,2.25,5.05,3.77,3,10.49-1.13,11.76-1.9a15.82,15.82,0,0,0,6.75-7.58C253.49,70.84,255.2,66.57,253.11,63.94Zm-7.33,11.48c-2.72,2.72-6.1,3.76-7.54,2.32s-.4-4.81,2.33-7.53,6.09-3.76,7.53-2.32S248.5,72.7,245.78,75.42Z" transform="translate(-0.73 -0.69)"/><path class="cls-5" d="M258.13,63.26V80.7A2.52,2.52,0,0,0,260.7,83a2.49,2.49,0,0,0,2.19-1.92l.12-17.7a2.44,2.44,0,0,0-4.88-.13Z" transform="translate(-0.73 -0.69)"/><ellipse class="cls-5" cx="260.35" cy="54.23" rx="3.2" ry="2.49" transform="translate(57.66 226.56) rotate(-52.35)"/><path class="cls-5" d="M291.51,78.81c-.78-1.46-1.69-2.92-2.42-4.44a17.54,17.54,0,0,1-1.49-5,49.74,49.74,0,0,0-1.1-6.55c-.71-2.46-3.7-2.07-5.66-1.44a25.51,25.51,0,0,0-9.21,7.24,25.17,25.17,0,0,0-4,7.25,5.17,5.17,0,0,0,.9,5.87,5.24,5.24,0,0,0,7,.08,19.26,19.26,0,0,0,5-5.35c.81-1.32,1.43-2.71,2.1-2.62s.79,1.31,1.29,2.83a20.54,20.54,0,0,0,2.74,5.44,2.94,2.94,0,0,0,4.84-3.3Zm-13.77-6.17c-2,3-4.11,5.08-4.61,4.73s.74-3,2.79-6,4.1-5.08,4.61-4.73S279.78,69.69,277.74,72.64Z" transform="translate(-0.73 -0.69)"/><path class="cls-5" d="M300.43,65.61a.53.53,0,0,1-.18-.42,1.7,1.7,0,0,0-.25-1.08c-.87-1.1-2.88-.53-3.42.63a22.76,22.76,0,0,0-1.51,6,33.52,33.52,0,0,0-.39,5.48,16.24,16.24,0,0,0,.38,4.62A2.14,2.14,0,0,0,297.13,82a2.38,2.38,0,0,0,2.06-1.59,39.7,39.7,0,0,1,3.17-9.94,38.7,38.7,0,0,1,2.48-4.5,1.75,1.75,0,0,1,1.07-.35c1.6.06,1.22,1.85,1.31,3a50.56,50.56,0,0,0,.71,5.21A51.47,51.47,0,0,0,310.2,82a2.19,2.19,0,0,0,2,1.18c2.34-.16,2.2-3.68,1.85-5.33a3.25,3.25,0,0,0-.9-1.51c-.91-1-1.09-2.71-1.46-6.09-.23-2.09-.09-2.28-.34-4.88-.09-.86-.2-1.72-.3-2.58a17.74,17.74,0,0,0-.31-2.43,3.26,3.26,0,0,0-6.16-.52l-2.7,5.1C301.61,65.16,300.87,65.86,300.43,65.61Z" transform="translate(-0.73 -0.69)"/><path class="cls-5" d="M342.26,69.6a1.76,1.76,0,0,0-2.53.56L337,74.53c-.26.36-3.61,5-7.46,4.5a4,4,0,0,1-2.74-1.24c-.55-.66-1-1.8-.6-2.53.32-.55.92-.49,2-.92a6.7,6.7,0,0,0,2.62-1.87c1.59-1.94,1.43-5,.39-7.16A7.61,7.61,0,0,0,324.34,61a7.83,7.83,0,0,0-5.64,2.61c-1.54,1.78-1.71,4.64-1.51,6.88A13.67,13.67,0,0,0,319.5,77a14,14,0,0,0,5.27,4.63,10.45,10.45,0,0,0,4.8,1.25c4.89,0,8.24-3.72,9.56-5.19A17.76,17.76,0,0,0,342.56,72,1.76,1.76,0,0,0,342.26,69.6Zm-17.79,2.91c-1.49,0-2.61-1.65-2.7-3.08-.11-1.66,1.11-3.56,2.64-3.56s2.73,1.91,2.63,3.56C327,70.81,325.94,72.48,324.47,72.51Z" transform="translate(-0.73 -0.69)"/><path class="cls-5" d="M346.78,68V81.24a3.12,3.12,0,0,0,3.15,2.57,3,3,0,0,0,2.12-1.55V67h8.87a4.14,4.14,0,0,0,2.51-1.6c.14-.2,1.35-1.92.51-3.06a2.38,2.38,0,0,0-2.38-.71,10.11,10.11,0,0,1-2.07.81,10.44,10.44,0,0,1-1.59.3,46.49,46.49,0,0,1-5.85.17c.07-2.95,0-5.94.21-8.89.08-1.29,0-2.56.2-3.85.27-1.78.86-3.54.55-5.34a7,7,0,0,0-.47-1.63,2.87,2.87,0,0,0-2.35-1.76,3,3,0,0,0-3,2.79q-.14,9.5-.25,19l-7.28.18a2.45,2.45,0,0,0-.05,4.58Z" transform="translate(-0.73 -0.69)"/><path class="cls-2" d="M341.31,38.91a2.1,2.1,0,0,0-1.41,1.18,6.75,6.75,0,0,0,.17,6.95,2.06,2.06,0,0,0,1.61.87,1.9,1.9,0,0,0,1.47-1,2,2,0,0,0,0-2,4.51,4.51,0,0,1-.36-1.41,4.34,4.34,0,0,1,.3-1.81,2,2,0,0,0,0-2A2,2,0,0,0,341.31,38.91Z" transform="translate(-0.73 -0.69)"/><path class="cls-2" d="M358.51,39.13a2.08,2.08,0,0,1,1.42,1.18,6.73,6.73,0,0,1-.17,6.94,2.08,2.08,0,0,1-1.61.88,1.87,1.87,0,0,1-1.47-1,2,2,0,0,1,0-1.94,4.36,4.36,0,0,0,.35-1.41,4.31,4.31,0,0,0-.29-1.81,2,2,0,0,1,0-2.06A1.94,1.94,0,0,1,358.51,39.13Z" transform="translate(-0.73 -0.69)"/><path class="cls-6" d="M336.33,34.08c-1.18-.08-2.21,1-2.78,1.91a8.76,8.76,0,0,0-1.16,3.34,32.18,32.18,0,0,0-.28,5.29,19,19,0,0,0,.35,4.12,7.47,7.47,0,0,0,1.2,2.74c.55.75,1.46,1.69,2.48,1.53a2,2,0,0,0,1.48-1.31,3.34,3.34,0,0,0-.64-2.45c-.87-1.71-.87-3.24-.87-6a17.31,17.31,0,0,1,.25-3,12.7,12.7,0,0,1,.5-2.11c.36-1,1.52-1.76,1.11-2.93A1.87,1.87,0,0,0,336.33,34.08Z" transform="translate(-0.73 -0.69)"/><path class="cls-6" d="M363.82,33.93c1.18-.08,2.21,1,2.79,1.91a8.91,8.91,0,0,1,1.15,3.34,31.12,31.12,0,0,1,.28,5.29,19,19,0,0,1-.34,4.12,7.49,7.49,0,0,1-1.21,2.74c-.55.75-1.45,1.69-2.47,1.53a2,2,0,0,1-1.48-1.31,3.3,3.3,0,0,1,.64-2.45c.87-1.71.87-3.24.87-6a17.32,17.32,0,0,0-.26-3,12.94,12.94,0,0,0-.5-2.11c-.36-1-1.52-1.76-1.11-2.93A1.88,1.88,0,0,1,363.82,33.93Z" transform="translate(-0.73 -0.69)"/><path class="cls-1" d="M330.9,29.06a2,2,0,0,0-1.8-.26,3.56,3.56,0,0,0-2,2.14c-2.3,5.09-2.15,13.16-2.15,13.16.05,2.7.29,11.06,3,13.77a2.72,2.72,0,0,0,2.08,1,2.25,2.25,0,0,0,1.71-1.5c.38-1.11-.24-2.1-.73-3-1.6-3.13-1.34-7.13-1.49-10.54a33.72,33.72,0,0,1,1.71-12A2.27,2.27,0,0,0,330.9,29.06Z" transform="translate(-0.73 -0.69)"/><path class="cls-1" d="M369,28.81a2.05,2.05,0,0,1,1.8-.25,3.53,3.53,0,0,1,2,2.14c2.3,5.08,2.14,13.16,2.14,13.16-.05,2.7-.29,11-3,13.77a2.69,2.69,0,0,1-2.07,1,2.23,2.23,0,0,1-1.72-1.5c-.37-1.11.25-2.09.74-3,1.6-3.12,1.33-7.12,1.49-10.53a33.76,33.76,0,0,0-1.71-12A2.26,2.26,0,0,1,369,28.81Z" transform="translate(-0.73 -0.69)"/><path class="cls-5" d="M109.65,104.32a9.14,9.14,0,0,1-3.5.58c-3.73,0-6.54-2.18-6.54-6.18,0-3.82,2.81-6.41,6.92-6.41a7.56,7.56,0,0,1,3.14.54l-.41,1.29a6.68,6.68,0,0,0-2.68-.51c-3.1,0-5.16,1.83-5.16,5,0,3,1.86,4.9,5.09,4.9a7.33,7.33,0,0,0,2.79-.5Z" transform="translate(-0.73 -0.69)"/><path class="cls-5" d="M124.43,98.48c0,4.21-2.77,6.43-6.15,6.43s-6-2.49-6-6.19c0-3.88,2.62-6.41,6.15-6.41S124.43,94.86,124.43,98.48Zm-10.28.2c0,2.61,1.53,4.95,4.23,4.95s4.24-2.3,4.24-5.07c0-2.43-1.37-5-4.22-5S114.15,96,114.15,98.68Z" transform="translate(-0.73 -0.69)"/><path class="cls-5" d="M128.38,104.71V92.51h1.87l4.24,6.17a33,33,0,0,1,2.38,4l0,0a49.06,49.06,0,0,1-.2-5V92.51h1.62v12.2H136.6l-4.21-6.19a39.31,39.31,0,0,1-2.48-4.07h-.06c.1,1.54.14,3,.14,5v5.21Z" transform="translate(-0.73 -0.69)"/><path class="cls-5" d="M149.9,99h-5.15v4.4h5.74v1.32H143V92.51h7.16v1.32h-5.45v3.86h5.15Z" transform="translate(-0.73 -0.69)"/><path class="cls-5" d="M163.7,104.32a9.14,9.14,0,0,1-3.5.58c-3.73,0-6.54-2.18-6.54-6.18,0-3.82,2.81-6.41,6.91-6.41a7.62,7.62,0,0,1,3.15.54l-.41,1.29a6.72,6.72,0,0,0-2.68-.51c-3.1,0-5.17,1.83-5.17,5,0,3,1.87,4.9,5.09,4.9a7.25,7.25,0,0,0,2.79-.5Z" transform="translate(-0.73 -0.69)"/><path class="cls-5" d="M170.64,93.85h-4V92.51h9.8v1.34h-4v10.86h-1.73Z" transform="translate(-0.73 -0.69)"/><path class="cls-5" d="M180.29,100.88l-1.38,3.83h-1.77l4.5-12.2h2.07l4.52,12.2H186.4L185,100.88Zm4.34-1.24-1.3-3.51c-.29-.8-.49-1.52-.69-2.23h0c-.2.73-.42,1.47-.67,2.21l-1.3,3.53Z" transform="translate(-0.73 -0.69)"/><path class="cls-5" d="M209.86,93.85h-4V92.51h9.81v1.34h-4v10.86h-1.73Z" transform="translate(-0.73 -0.69)"/><path class="cls-5" d="M220.55,92.51v7.22c0,2.74,1.32,3.9,3.09,3.9,2,0,3.22-1.2,3.22-3.9V92.51h1.73v7.12c0,3.75-2.14,5.28-5,5.28-2.71,0-4.75-1.43-4.75-5.21V92.51Z" transform="translate(-0.73 -0.69)"/><path class="cls-5" d="M233.05,102.79a6.41,6.41,0,0,0,3.07.8c1.75,0,2.77-.85,2.77-2.08s-.71-1.79-2.49-2.43c-2.17-.7-3.5-1.74-3.5-3.46,0-1.9,1.71-3.31,4.28-3.31a6.4,6.4,0,0,1,2.93.6l-.47,1.28a5.6,5.6,0,0,0-2.52-.58c-1.81,0-2.49,1-2.49,1.83,0,1.14.8,1.7,2.63,2.36,2.24.79,3.38,1.79,3.38,3.58s-1.51,3.52-4.64,3.52a7.36,7.36,0,0,1-3.38-.78Z" transform="translate(-0.73 -0.69)"/><path class="cls-5" d="M260.87,99h-5.15v4.4h5.74v1.32H254V92.51h7.16v1.32h-5.45v3.86h5.15Z" transform="translate(-0.73 -0.69)"/><path class="cls-5" d="M276.22,99.35c-.1-1.7-.22-3.75-.2-5.27H276c-.45,1.43-1,3-1.67,4.64L272,104.64h-1.3l-2.14-5.81c-.63-1.72-1.16-3.3-1.54-4.75h0c0,1.52-.13,3.57-.25,5.4l-.36,5.23H264.7l.93-12.2h2.18l2.26,5.9c.55,1.5,1,2.84,1.34,4.11h0c.34-1.23.81-2.57,1.4-4.11l2.36-5.9h2.18l.82,12.2h-1.67Z" transform="translate(-0.73 -0.69)"/><path class="cls-5" d="M293.56,98.48c0,4.21-2.78,6.43-6.16,6.43s-5.95-2.5-5.95-6.19c0-3.88,2.61-6.41,6.15-6.41S293.56,94.86,293.56,98.48Zm-10.28.2c0,2.61,1.53,4.95,4.22,4.95s4.25-2.3,4.25-5.07c0-2.43-1.38-5-4.23-5S283.28,96,283.28,98.68Z" transform="translate(-0.73 -0.69)"/><path class="cls-5" d="M306.41,104.32a9.18,9.18,0,0,1-3.5.57c-3.73,0-6.54-2.17-6.54-6.17,0-3.82,2.81-6.41,6.91-6.41a7.62,7.62,0,0,1,3.15.54L306,94.14a6.72,6.72,0,0,0-2.68-.51c-3.1,0-5.17,1.83-5.17,5,0,3,1.87,4.91,5.09,4.91a7.45,7.45,0,0,0,2.79-.5Z" transform="translate(-0.73 -0.69)"/><path class="cls-5" d="M311.64,92.51v12.2h-1.71V92.51Z" transform="translate(-0.73 -0.69)"/><path class="cls-5" d="M327.32,98.48c0,4.21-2.77,6.43-6.15,6.43s-6-2.5-6-6.19c0-3.88,2.62-6.41,6.16-6.41S327.32,94.86,327.32,98.48Zm-10.28.2c0,2.61,1.54,4.95,4.23,4.95s4.24-2.3,4.24-5.07c0-2.43-1.37-5-4.22-5S317,96,317,98.68Z" transform="translate(-0.73 -0.69)"/><path class="cls-5" d="M330.92,104.71V92.51h1.86L337,98.68a34.33,34.33,0,0,1,2.38,4l0,0a49.15,49.15,0,0,1-.2-5v-5.1h1.61v12.2h-1.73l-4.2-6.19a36.8,36.8,0,0,1-2.48-4.08l-.06,0c.1,1.54.14,3,.14,5v5.21Z" transform="translate(-0.73 -0.69)"/><path class="cls-5" d="M352.08,99h-5.15v4.4h5.74v1.32h-7.44V92.51h7.15v1.32h-5.45v3.86h5.15Z" transform="translate(-0.73 -0.69)"/><path class="cls-5" d="M356,102.79a6.34,6.34,0,0,0,3.06.8c1.75,0,2.77-.85,2.77-2.08s-.7-1.8-2.49-2.43c-2.17-.7-3.5-1.74-3.5-3.46,0-1.9,1.71-3.31,4.28-3.31a6.56,6.56,0,0,1,2.93.59l-.47,1.29a5.6,5.6,0,0,0-2.52-.58c-1.81,0-2.49,1-2.49,1.83,0,1.14.8,1.7,2.63,2.35,2.24.8,3.38,1.8,3.38,3.59s-1.51,3.51-4.64,3.51a7.4,7.4,0,0,1-3.38-.77Z" transform="translate(-0.73 -0.69)"/></svg>